<svg width="368" height="134" viewBox="0 0 368 134" fill="none" xmlns="http://www.w3.org/2000/svg">
<path d="M3.32 56V28H24.48V33.2H9.8V56H3.32ZM9.32 45.8V40.6H22.76V45.8H9.32ZM28.0363 56V34.48H33.9963V40.56L33.1563 38.8C33.7963 37.28 34.8229 36.1333 36.2363 35.36C37.6496 34.56 39.3696 34.16 41.3963 34.16V39.92C41.1296 39.8933 40.8896 39.88 40.6763 39.88C40.4629 39.8533 40.2363 39.84 39.9963 39.84C38.2896 39.84 36.9029 40.3333 35.8363 41.32C34.7963 42.28 34.2763 43.7867 34.2763 45.84V56H28.0363ZM55.1903 56.32C52.897 56.32 50.857 55.84 49.0703 54.88C47.3103 53.92 45.9103 52.6133 44.8703 50.96C43.857 49.28 43.3503 47.3733 43.3503 45.24C43.3503 43.08 43.857 41.1733 44.8703 39.52C45.9103 37.84 47.3103 36.5333 49.0703 35.6C50.857 34.64 52.897 34.16 55.1903 34.16C57.457 34.16 59.4836 34.64 61.2703 35.6C63.057 36.5333 64.457 37.8267 65.4703 39.48C66.4836 41.1333 66.9903 43.0533 66.9903 45.24C66.9903 47.3733 66.4836 49.28 65.4703 50.96C64.457 52.6133 63.057 53.92 61.2703 54.88C59.4836 55.84 57.457 56.32 55.1903 56.32ZM55.1903 51.2C56.2303 51.2 57.1636 50.96 57.9903 50.48C58.817 50 59.4703 49.32 59.9503 48.44C60.4303 47.5333 60.6703 46.4667 60.6703 45.24C60.6703 43.9867 60.4303 42.92 59.9503 42.04C59.4703 41.16 58.817 40.48 57.9903 40C57.1636 39.52 56.2303 39.28 55.1903 39.28C54.1503 39.28 53.217 39.52 52.3903 40C51.5636 40.48 50.897 41.16 50.3903 42.04C49.9103 42.92 49.6703 43.9867 49.6703 45.24C49.6703 46.4667 49.9103 47.5333 50.3903 48.44C50.897 49.32 51.5636 50 52.3903 50.48C53.217 50.96 54.1503 51.2 55.1903 51.2ZM71.1613 56V34.48H77.1213V40.36L76.0013 38.64C76.7479 37.1733 77.8013 36.0667 79.1613 35.32C80.5479 34.5467 82.1213 34.16 83.8813 34.16C85.8546 34.16 87.5746 34.6667 89.0413 35.68C90.5346 36.6667 91.5213 38.1867 92.0013 40.24L89.8013 39.64C90.5213 37.96 91.6679 36.6267 93.2413 35.64C94.8413 34.6533 96.6679 34.16 98.7213 34.16C100.428 34.16 101.935 34.5067 103.241 35.2C104.575 35.8667 105.615 36.9067 106.361 38.32C107.135 39.7067 107.521 41.4933 107.521 43.68V56H101.281V44.64C101.281 42.9067 100.921 41.6267 100.201 40.8C99.4813 39.9733 98.4679 39.56 97.1613 39.56C96.2546 39.56 95.4413 39.7733 94.7213 40.2C94.0013 40.6 93.4413 41.2133 93.0413 42.04C92.6413 42.8667 92.4413 43.92 92.4413 45.2V56H86.2013V44.64C86.2013 42.9067 85.8413 41.6267 85.1213 40.8C84.4279 39.9733 83.4279 39.56 82.1213 39.56C81.2146 39.56 80.4013 39.7733 79.6813 40.2C78.9613 40.6 78.4013 41.2133 78.0013 42.04C77.6013 42.8667 77.4013 43.92 77.4013 45.2V56H71.1613ZM133.283 56L121.202 28H128.203L138.763 52.8H134.643L145.363 28H151.803L139.683 56H133.283ZM154.052 56V34.48H160.292V56H154.052ZM157.172 31.48C156.025 31.48 155.092 31.1467 154.372 30.48C153.652 29.8133 153.292 28.9867 153.292 28C153.292 27.0133 153.652 26.1867 154.372 25.52C155.092 24.8533 156.025 24.52 157.172 24.52C158.319 24.52 159.252 24.84 159.972 25.48C160.692 26.0933 161.052 26.8933 161.052 27.88C161.052 28.92 160.692 29.7867 159.972 30.48C159.279 31.1467 158.345 31.48 157.172 31.48ZM173.323 56.32C171.483 56.32 169.71 56.1067 168.003 55.68C166.323 55.2267 164.99 54.6667 164.003 54L166.083 49.52C167.07 50.1333 168.23 50.64 169.563 51.04C170.923 51.4133 172.256 51.6 173.563 51.6C175.003 51.6 176.016 51.4267 176.603 51.08C177.216 50.7333 177.523 50.2533 177.523 49.64C177.523 49.1333 177.283 48.76 176.803 48.52C176.35 48.2533 175.736 48.0533 174.963 47.92C174.19 47.7867 173.336 47.6533 172.403 47.52C171.496 47.3867 170.576 47.2133 169.643 47C168.71 46.76 167.856 46.4133 167.083 45.96C166.31 45.5067 165.683 44.8933 165.203 44.12C164.75 43.3467 164.523 42.3467 164.523 41.12C164.523 39.76 164.91 38.56 165.683 37.52C166.483 36.48 167.63 35.6667 169.123 35.08C170.616 34.4667 172.403 34.16 174.483 34.16C175.95 34.16 177.443 34.32 178.963 34.64C180.483 34.96 181.75 35.4267 182.763 36.04L180.683 40.48C179.643 39.8667 178.59 39.4533 177.523 39.24C176.483 39 175.47 38.88 174.483 38.88C173.096 38.88 172.083 39.0667 171.443 39.44C170.803 39.8133 170.483 40.2933 170.483 40.88C170.483 41.4133 170.71 41.8133 171.163 42.08C171.643 42.3467 172.27 42.56 173.043 42.72C173.816 42.88 174.656 43.0267 175.563 43.16C176.496 43.2667 177.43 43.44 178.363 43.68C179.296 43.92 180.136 44.2667 180.883 44.72C181.656 45.1467 182.283 45.7467 182.763 46.52C183.243 47.2667 183.483 48.2533 183.483 49.48C183.483 50.8133 183.083 52 182.283 53.04C181.483 54.0533 180.323 54.8533 178.803 55.44C177.31 56.0267 175.483 56.32 173.323 56.32ZM187.333 56V34.48H193.573V56H187.333ZM190.453 31.48C189.306 31.48 188.373 31.1467 187.653 30.48C186.933 29.8133 186.573 28.9867 186.573 28C186.573 27.0133 186.933 26.1867 187.653 25.52C188.373 24.8533 189.306 24.52 190.453 24.52C191.6 24.52 192.533 24.84 193.253 25.48C193.973 26.0933 194.333 26.8933 194.333 27.88C194.333 28.92 193.973 29.7867 193.253 30.48C192.56 31.1467 191.626 31.48 190.453 31.48ZM209.604 56.32C207.311 56.32 205.271 55.84 203.484 54.88C201.724 53.92 200.324 52.6133 199.284 50.96C198.271 49.28 197.764 47.3733 197.764 45.24C197.764 43.08 198.271 41.1733 199.284 39.52C200.324 37.84 201.724 36.5333 203.484 35.6C205.271 34.64 207.311 34.16 209.604 34.16C211.871 34.16 213.898 34.64 215.684 35.6C217.471 36.5333 218.871 37.8267 219.884 39.48C220.898 41.1333 221.404 43.0533 221.404 45.24C221.404 47.3733 220.898 49.28 219.884 50.96C218.871 52.6133 217.471 53.92 215.684 54.88C213.898 55.84 211.871 56.32 209.604 56.32ZM209.604 51.2C210.644 51.2 211.578 50.96 212.404 50.48C213.231 50 213.884 49.32 214.364 48.44C214.844 47.5333 215.084 46.4667 215.084 45.24C215.084 43.9867 214.844 42.92 214.364 42.04C213.884 41.16 213.231 40.48 212.404 40C211.578 39.52 210.644 39.28 209.604 39.28C208.564 39.28 207.631 39.52 206.804 40C205.978 40.48 205.311 41.16 204.804 42.04C204.324 42.92 204.084 43.9867 204.084 45.24C204.084 46.4667 204.324 47.5333 204.804 48.44C205.311 49.32 205.978 50 206.804 50.48C207.631 50.96 208.564 51.2 209.604 51.2ZM225.575 56V34.48H231.535V40.44L230.415 38.64C231.189 37.2 232.295 36.0933 233.735 35.32C235.175 34.5467 236.815 34.16 238.655 34.16C240.362 34.16 241.882 34.5067 243.215 35.2C244.575 35.8667 245.642 36.9067 246.415 38.32C247.189 39.7067 247.575 41.4933 247.575 43.68V56H241.335V44.64C241.335 42.9067 240.949 41.6267 240.175 40.8C239.429 39.9733 238.362 39.56 236.975 39.56C235.989 39.56 235.095 39.7733 234.295 40.2C233.522 40.6 232.909 41.2267 232.455 42.08C232.029 42.9333 231.815 44.0267 231.815 45.36V56H225.575Z" fill="url(#paint0_linear_729_156)"/>
<path d="M36.592 118V81.648H22.256V73.2H61.296V81.648H46.96V118H36.592ZM79.0545 118.512C75.3852 118.512 72.1212 117.744 69.2625 116.208C66.4465 114.672 64.2065 112.581 62.5425 109.936C60.9212 107.248 60.1105 104.197 60.1105 100.784C60.1105 97.328 60.9212 94.2773 62.5425 91.632C64.2065 88.944 66.4465 86.8533 69.2625 85.36C72.1212 83.824 75.3852 83.056 79.0545 83.056C82.6812 83.056 85.9238 83.824 88.7825 85.36C91.6412 86.8533 93.8812 88.9227 95.5025 91.568C97.1238 94.2133 97.9345 97.2853 97.9345 100.784C97.9345 104.197 97.1238 107.248 95.5025 109.936C93.8812 112.581 91.6412 114.672 88.7825 116.208C85.9238 117.744 82.6812 118.512 79.0545 118.512ZM79.0545 110.32C80.7185 110.32 82.2118 109.936 83.5345 109.168C84.8572 108.4 85.9025 107.312 86.6705 105.904C87.4385 104.453 87.8225 102.747 87.8225 100.784C87.8225 98.7787 87.4385 97.072 86.6705 95.664C85.9025 94.256 84.8572 93.168 83.5345 92.4C82.2118 91.632 80.7185 91.248 79.0545 91.248C77.3905 91.248 75.8972 91.632 74.5745 92.4C73.2518 93.168 72.1852 94.256 71.3745 95.664C70.6065 97.072 70.2225 98.7787 70.2225 100.784C70.2225 102.747 70.6065 104.453 71.3745 105.904C72.1852 107.312 73.2518 108.4 74.5745 109.168C75.8972 109.936 77.3905 110.32 79.0545 110.32ZM145.069 118.768C141.528 118.768 138.264 118.213 135.277 117.104C132.333 115.952 129.752 114.331 127.533 112.24C125.357 110.149 123.65 107.696 122.413 104.88C121.218 102.064 120.621 98.9707 120.621 95.6C120.621 92.2293 121.218 89.136 122.413 86.32C123.65 83.504 125.378 81.0507 127.597 78.96C129.816 76.8693 132.418 75.2693 135.405 74.16C138.392 73.008 141.677 72.432 145.261 72.432C149.229 72.432 152.792 73.0933 155.949 74.416C159.149 75.7387 161.837 77.6587 164.013 80.176L157.357 86.32C155.736 84.6133 153.965 83.3547 152.045 82.544C150.125 81.6907 148.034 81.264 145.773 81.264C143.597 81.264 141.613 81.6053 139.821 82.288C138.029 82.9707 136.472 83.952 135.149 85.232C133.869 86.512 132.866 88.0267 132.141 89.776C131.458 91.5253 131.117 93.4667 131.117 95.6C131.117 97.6907 131.458 99.6107 132.141 101.36C132.866 103.109 133.869 104.645 135.149 105.968C136.472 107.248 138.008 108.229 139.757 108.912C141.549 109.595 143.512 109.936 145.645 109.936C147.693 109.936 149.677 109.616 151.597 108.976C153.56 108.293 155.458 107.163 157.293 105.584L163.181 113.072C160.749 114.907 157.912 116.315 154.669 117.296C151.469 118.277 148.269 118.768 145.069 118.768ZM163.181 113.072L153.709 111.728V94.896H163.181V113.072ZM172.108 118V83.568H181.644V93.296L180.3 90.48C181.324 88.048 182.967 86.2133 185.228 84.976C187.489 83.696 190.241 83.056 193.484 83.056V92.272C193.057 92.2293 192.673 92.208 192.332 92.208C191.991 92.1653 191.628 92.144 191.244 92.144C188.513 92.144 186.295 92.9333 184.588 94.512C182.924 96.048 182.092 98.4587 182.092 101.744V118H172.108ZM215.555 118.512C211.885 118.512 208.621 117.744 205.763 116.208C202.947 114.672 200.707 112.581 199.043 109.936C197.421 107.248 196.611 104.197 196.611 100.784C196.611 97.328 197.421 94.2773 199.043 91.632C200.707 88.944 202.947 86.8533 205.763 85.36C208.621 83.824 211.885 83.056 215.555 83.056C219.181 83.056 222.424 83.824 225.283 85.36C228.141 86.8533 230.381 88.9227 232.003 91.568C233.624 94.2133 234.435 97.2853 234.435 100.784C234.435 104.197 233.624 107.248 232.003 109.936C230.381 112.581 228.141 114.672 225.283 116.208C222.424 117.744 219.181 118.512 215.555 118.512ZM215.555 110.32C217.219 110.32 218.712 109.936 220.035 109.168C221.357 108.4 222.403 107.312 223.171 105.904C223.939 104.453 224.323 102.747 224.323 100.784C224.323 98.7787 223.939 97.072 223.171 95.664C222.403 94.256 221.357 93.168 220.035 92.4C218.712 91.632 217.219 91.248 215.555 91.248C213.891 91.248 212.397 91.632 211.075 92.4C209.752 93.168 208.685 94.256 207.875 95.664C207.107 97.072 206.723 98.7787 206.723 100.784C206.723 102.747 207.107 104.453 207.875 105.904C208.685 107.312 209.752 108.4 211.075 109.168C212.397 109.936 213.891 110.32 215.555 110.32ZM248.043 118L235.627 83.568H245.035L255.339 113.2H250.859L261.611 83.568H270.059L280.491 113.2H276.011L286.635 83.568H295.467L282.987 118H273.323L264.171 92.592H267.115L257.643 118H248.043ZM314.563 118.512C310.51 118.512 307.352 117.488 305.091 115.44C302.83 113.349 301.699 110.256 301.699 106.16V75.952H311.683V106.032C311.683 107.483 312.067 108.613 312.835 109.424C313.603 110.192 314.648 110.576 315.971 110.576C317.55 110.576 318.894 110.149 320.003 109.296L322.691 116.336C321.667 117.061 320.43 117.616 318.979 118C317.571 118.341 316.099 118.512 314.563 118.512ZM296.387 91.248V83.568H320.259V91.248H296.387ZM328.296 118V70.512H338.28V93.104L336.04 90.224C337.277 87.92 339.048 86.1493 341.352 84.912C343.656 83.6747 346.28 83.056 349.224 83.056C351.954 83.056 354.386 83.6107 356.52 84.72C358.696 85.7867 360.402 87.4507 361.64 89.712C362.877 91.9307 363.496 94.7893 363.496 98.288V118H353.512V99.824C353.512 97.0507 352.893 95.0027 351.656 93.68C350.461 92.3573 348.754 91.696 346.536 91.696C344.957 91.696 343.528 92.0373 342.248 92.72C341.01 93.36 340.029 94.3627 339.304 95.728C338.621 97.0933 338.28 98.8427 338.28 100.976V118H328.296Z" fill="url(#paint1_linear_729_156)"/>
<path d="M318.581 53.2C319.048 53.2 319.453 53.3704 319.796 53.711L325.375 59.311C325.715 59.6517 325.886 60.0647 325.886 60.55C325.886 61.0354 325.715 61.4484 325.375 61.789C325.034 62.1297 324.621 62.3 324.136 62.3C323.65 62.3 323.237 62.1297 322.897 61.789L317.297 56.2065C316.956 55.8659 316.797 55.4505 316.821 54.9605C316.844 54.4705 317.025 54.054 317.363 53.711C317.702 53.368 318.108 53.1977 318.581 53.2ZM320.3 14.308C320.3 14.798 320.129 15.2134 319.789 15.554L314.21 21.14C313.869 21.4807 313.464 21.651 312.995 21.651C312.526 21.651 312.121 21.4807 311.781 21.14C311.438 20.797 311.266 20.3805 311.266 19.8905C311.266 19.4005 311.438 18.984 311.781 18.641L317.311 13.062C317.651 12.7214 318.064 12.551 318.55 12.551C319.035 12.551 319.448 12.7214 319.789 13.062C320.129 13.4027 320.3 13.8192 320.3 14.3115M267.46 12.614C267.95 12.614 268.366 12.7844 268.706 13.125L274.289 18.655C274.629 18.998 274.8 19.4122 274.8 19.8975C274.8 20.3805 274.629 20.7935 274.289 21.1365C273.948 21.4772 273.532 21.6475 273.039 21.6475C272.549 21.6475 272.134 21.4772 271.793 21.1365L266.211 15.554C265.87 15.2134 265.7 14.8085 265.7 14.3395C265.7 13.8705 265.87 13.4657 266.211 13.125C266.551 12.7844 266.968 12.614 267.46 12.614ZM269.144 54.9955C269.144 55.4622 268.973 55.867 268.633 56.21L263.054 61.789C262.713 62.1297 262.308 62.3 261.839 62.3C261.37 62.3 260.965 62.1297 260.625 61.789C260.284 61.4484 260.114 61.0319 260.114 60.5395C260.114 60.0472 260.284 59.6307 260.625 59.29L266.155 53.711C266.498 53.3704 266.912 53.2105 267.397 53.2315C267.88 53.2549 268.293 53.438 268.636 53.781C268.977 54.1217 269.144 54.5265 269.144 54.9955ZM293 58.31L277.197 67.795C276.824 67.9794 276.479 68.054 276.161 68.019C275.842 67.9817 275.531 67.872 275.23 67.69C274.929 67.5034 274.701 67.2397 274.544 66.899C274.388 66.5537 274.374 66.1815 274.502 65.7825L278.692 48.034L264.751 35.98C264.436 35.7234 264.24 35.4165 264.163 35.0595C264.084 34.7049 264.117 34.363 264.261 34.034C264.406 33.705 264.598 33.4379 264.839 33.2325C265.079 33.0272 265.406 32.8884 265.819 32.816L284.141 31.262L291.309 14.406C291.468 14.021 291.697 13.7434 291.995 13.573C292.294 13.4027 292.629 13.3187 293 13.321C293.371 13.3234 293.707 13.4085 294.008 13.5765C294.309 13.7445 294.536 14.0222 294.69 14.4095L301.925 31.2655L320.247 32.8195C320.66 32.8895 320.987 33.0295 321.227 33.2395C321.47 33.4425 321.664 33.7085 321.808 34.0375C321.953 34.3665 321.986 34.7084 321.906 35.063C321.827 35.42 321.63 35.7269 321.315 35.9835L307.378 48.0375L311.564 65.8525C311.694 66.2515 311.68 66.612 311.522 66.934C311.363 67.256 311.134 67.5092 310.836 67.6935C310.535 67.8755 310.226 67.984 309.908 68.019C309.589 68.0564 309.242 67.9829 308.869 67.7985L293 58.31Z" fill="url(#paint2_linear_729_156)"/>
<defs>
<linearGradient id="paint0_linear_729_156" x1="0" y1="41.5" x2="251" y2="41.5" gradientUnits="userSpaceOnUse">
<stop stop-color="#00514B"/>
<stop offset="1" stop-color="#00B7A9"/>
</linearGradient>
<linearGradient id="paint1_linear_729_156" x1="22" y1="95" x2="368" y2="95" gradientUnits="userSpaceOnUse">
<stop stop-color="#00514B"/>
<stop offset="1" stop-color="#00B7A9"/>
</linearGradient>
<linearGradient id="paint2_linear_729_156" x1="293" y1="12.551" x2="293" y2="68.0285" gradientUnits="userSpaceOnUse">
<stop stop-color="#00514B"/>
<stop offset="1" stop-color="#00B7A9"/>
</linearGradient>
</defs>
</svg>
